<svg width="16" height="16" viewBox="0 0 16 16" fill="none" xmlns="http://www.w3.org/2000/svg">
<path d="M14.0463 13.0231C14.8541 12.0512 15.416 10.899 15.6843 9.66396C15.9527 8.42896 15.9196 7.14749 15.588 5.92797C15.2563 4.70845 14.6358 3.58674 13.7789 2.65774C12.9221 1.72874 11.8541 1.01979 10.6653 0.590841C9.47648 0.161896 8.20186 0.0255824 6.94923 0.193432C5.69661 0.361282 4.50284 0.828358 3.46891 1.55515C2.43497 2.28193 1.5913 3.24706 1.00925 4.36886C0.427196 5.49067 0.123896 6.73617 0.125003 7.99998C0.125428 9.83721 0.77286 11.6156 1.95369 13.0231L1.94244 13.0327C1.98182 13.0799 2.02682 13.1204 2.06732 13.1671C2.11794 13.225 2.1725 13.2796 2.22482 13.3359C2.38232 13.5069 2.54432 13.6711 2.71419 13.8252C2.76594 13.8725 2.81938 13.9164 2.87169 13.9614C3.05169 14.1166 3.23676 14.264 3.42857 14.4012C3.45332 14.4181 3.47582 14.44 3.50057 14.4575V14.4507C4.818 15.3778 6.38963 15.8754 8.00057 15.8754C9.61151 15.8754 11.1831 15.3778 12.5006 14.4507V14.4575C12.5253 14.44 12.5473 14.4181 12.5726 14.4012C12.7638 14.2634 12.9494 14.1166 13.1294 13.9614C13.1818 13.9164 13.2352 13.8719 13.2869 13.8252C13.4568 13.6705 13.6188 13.5069 13.7763 13.3359C13.8286 13.2796 13.8826 13.225 13.9338 13.1671C13.9738 13.1204 14.0193 13.0799 14.0587 13.0321L14.0463 13.0231ZM8.00001 3.49999C8.50064 3.49999 8.99003 3.64844 9.4063 3.92658C9.82256 4.20472 10.147 4.60004 10.3386 5.06257C10.5302 5.52509 10.5803 6.03404 10.4826 6.52506C10.385 7.01607 10.1439 7.4671 9.78987 7.8211C9.43587 8.1751 8.98485 8.41618 8.49383 8.51385C8.00282 8.61152 7.49387 8.56139 7.03134 8.3698C6.56881 8.17822 6.17349 7.85378 5.89535 7.43752C5.61721 7.02126 5.46876 6.53187 5.46876 6.03123C5.46876 5.35991 5.73544 4.71607 6.21014 4.24137C6.68484 3.76667 7.32868 3.49999 8.00001 3.49999ZM3.50394 13.0231C3.5137 12.2845 3.81385 11.5795 4.33946 11.0605C4.86506 10.5415 5.57386 10.2504 6.31251 10.25H9.68751C10.4262 10.2504 11.135 10.5415 11.6606 11.0605C12.1862 11.5795 12.4863 12.2845 12.4961 13.0231C11.2624 14.1348 9.66066 14.75 8.00001 14.75C6.33936 14.75 4.7376 14.1348 3.50394 13.0231Z" fill="black"/>
</svg>
