<svg width="29" height="30" viewBox="0 0 29 30" fill="none" xmlns="http://www.w3.org/2000/svg">
<path d="M28.5783 12.8115H25.3161C25.1308 12.8115 24.9536 12.8919 24.8288 13.0325L16.0128 23.1669V0.548183C16.0128 0.371443 15.8678 0.226837 15.6906 0.226837H13.2741C13.0969 0.226837 12.9519 0.371443 12.9519 0.548183V23.1669L4.13591 13.0325C4.01509 12.8919 3.83788 12.8115 3.64859 12.8115H0.386387C0.112523 12.8115 -0.0364911 13.1369 0.144743 13.3418L13.5117 28.7061C13.6326 28.8451 13.7819 28.9566 13.9497 29.033C14.1176 29.1094 14.2999 29.149 14.4843 29.149C14.6688 29.149 14.8511 29.1094 15.019 29.033C15.1868 28.9566 15.3361 28.8451 15.457 28.7061L28.8199 13.3418C29.0012 13.1329 28.8521 12.8115 28.5783 12.8115Z" fill="#464646"/>
</svg>
