<svg width="16" height="16" viewBox="0 0 16 16" fill="none" xmlns="http://www.w3.org/2000/svg">
<path fill-rule="evenodd" clip-rule="evenodd" d="M8 15C9.85652 15 11.637 14.2625 12.9497 12.9497C14.2625 11.637 15 9.85652 15 8C15 6.14348 14.2625 4.36301 12.9497 3.05025C11.637 1.7375 9.85652 1 8 1C6.14348 1 4.36301 1.7375 3.05025 3.05025C1.7375 4.36301 1 6.14348 1 8C1 9.85652 1.7375 11.637 3.05025 12.9497C4.36301 14.2625 6.14348 15 8 15V15ZM8 16C10.1217 16 12.1566 15.1571 13.6569 13.6569C15.1571 12.1566 16 10.1217 16 8C16 5.87827 15.1571 3.84344 13.6569 2.34315C12.1566 0.842855 10.1217 0 8 0C5.87827 0 3.84344 0.842855 2.34315 2.34315C0.842855 3.84344 0 5.87827 0 8C0 10.1217 0.842855 12.1566 2.34315 13.6569C3.84344 15.1571 5.87827 16 8 16V16Z" fill="black"/>
<path fill-rule="evenodd" clip-rule="evenodd" d="M4.64601 7.64599C4.69245 7.59943 4.74763 7.56249 4.80837 7.53728C4.86912 7.51207 4.93424 7.4991 5.00001 7.4991C5.06578 7.4991 5.1309 7.51207 5.19164 7.53728C5.25239 7.56249 5.30756 7.59943 5.35401 7.64599L8.00001 10.293L10.646 7.64599C10.7399 7.55211 10.8672 7.49936 11 7.49936C11.1328 7.49936 11.2601 7.55211 11.354 7.64599C11.4479 7.73988 11.5006 7.86722 11.5006 7.99999C11.5006 8.13277 11.4479 8.26011 11.354 8.35399L8.35401 11.354C8.30756 11.4006 8.25239 11.4375 8.19164 11.4627C8.1309 11.4879 8.06578 11.5009 8.00001 11.5009C7.93424 11.5009 7.86912 11.4879 7.80837 11.4627C7.74763 11.4375 7.69245 11.4006 7.64601 11.354L4.64601 8.35399C4.59945 8.30755 4.5625 8.25237 4.5373 8.19163C4.51209 8.13088 4.49911 8.06576 4.49911 7.99999C4.49911 7.93423 4.51209 7.8691 4.5373 7.80836C4.5625 7.74761 4.59945 7.69244 4.64601 7.64599V7.64599Z" fill="black"/>
<path fill-rule="evenodd" clip-rule="evenodd" d="M8 4.5C8.13261 4.5 8.25979 4.55268 8.35355 4.64645C8.44732 4.74021 8.5 4.86739 8.5 5V10C8.5 10.1326 8.44732 10.2598 8.35355 10.3536C8.25979 10.4473 8.13261 10.5 8 10.5C7.86739 10.5 7.74021 10.4473 7.64645 10.3536C7.55268 10.2598 7.5 10.1326 7.5 10V5C7.5 4.86739 7.55268 4.74021 7.64645 4.64645C7.74021 4.55268 7.86739 4.5 8 4.5V4.5Z" fill="black"/>
</svg>
