<svg width="16" height="16" viewBox="0 0 16 16" fill="none" xmlns="http://www.w3.org/2000/svg">
<g clip-path="url(#clip0)">
<path fill-rule="evenodd" clip-rule="evenodd" d="M8 1C6.14348 1 4.36301 1.7375 3.05025 3.05025C1.7375 4.36301 0.999999 6.14349 0.999999 8C0.999999 9.85652 1.7375 11.637 3.05025 12.9497C4.36301 14.2625 6.14348 15 8 15C9.85652 15 11.637 14.2625 12.9497 12.9497C14.2625 11.637 15 9.85652 15 8C15 6.14348 14.2625 4.36301 12.9497 3.05025C11.637 1.7375 9.85651 1 8 1V1ZM8 6.99382e-07C5.87827 8.8487e-07 3.84344 0.842855 2.34314 2.34315C0.842853 3.84344 -8.8487e-07 5.87827 -6.99382e-07 8C-5.13895e-07 10.1217 0.842854 12.1566 2.34315 13.6569C3.84344 15.1571 5.87827 16 8 16C10.1217 16 12.1566 15.1571 13.6569 13.6569C15.1571 12.1566 16 10.1217 16 8C16 5.87827 15.1571 3.84344 13.6569 2.34315C12.1566 0.842855 10.1217 5.13895e-07 8 6.99382e-07V6.99382e-07Z" fill="black"/>
<path fill-rule="evenodd" clip-rule="evenodd" d="M11.354 8.35401C11.3075 8.40057 11.2524 8.43751 11.1916 8.46272C11.1309 8.48793 11.0658 8.5009 11 8.5009C10.9342 8.5009 10.8691 8.48793 10.8084 8.46272C10.7476 8.43751 10.6924 8.40057 10.646 8.35401L7.99999 5.70701L5.35399 8.35401C5.2601 8.44789 5.13277 8.50064 4.99999 8.50064C4.86722 8.50064 4.73988 8.44789 4.64599 8.35401C4.5521 8.26012 4.49936 8.13278 4.49936 8.00001C4.49936 7.86723 4.5521 7.73989 4.64599 7.64601L7.64599 4.64601C7.69244 4.59944 7.74761 4.5625 7.80836 4.53729C7.8691 4.51209 7.93422 4.49911 7.99999 4.49911C8.06576 4.49911 8.13088 4.51209 8.19162 4.53729C8.25237 4.5625 8.30755 4.59944 8.35399 4.64601L11.354 7.64601C11.4006 7.69245 11.4375 7.74763 11.4627 7.80837C11.4879 7.86912 11.5009 7.93424 11.5009 8.00001C11.5009 8.06577 11.4879 8.1309 11.4627 8.19164C11.4375 8.25239 11.4006 8.30756 11.354 8.35401V8.35401Z" fill="black"/>
<path fill-rule="evenodd" clip-rule="evenodd" d="M8 11.5C7.86739 11.5 7.74021 11.4473 7.64645 11.3536C7.55268 11.2598 7.5 11.1326 7.5 11L7.5 6C7.5 5.86739 7.55268 5.74021 7.64645 5.64645C7.74021 5.55268 7.86739 5.5 8 5.5C8.13261 5.5 8.25978 5.55268 8.35355 5.64645C8.44732 5.74021 8.5 5.86739 8.5 6L8.5 11C8.5 11.1326 8.44732 11.2598 8.35355 11.3536C8.25979 11.4473 8.13261 11.5 8 11.5V11.5Z" fill="black"/>
</g>
<defs>
<clipPath id="clip0">
<rect width="16" height="16" fill="white" transform="translate(16 16) rotate(180)"/>
</clipPath>
</defs>
</svg>
