<svg width="279" height="281" viewBox="0 0 279 281" fill="none" xmlns="http://www.w3.org/2000/svg">
<path d="M0.769209 127.421L130.112 276.697C131.281 278.048 132.726 279.131 134.35 279.873C135.974 280.616 137.738 281 139.523 281C141.308 281 143.072 280.616 144.696 279.873C146.32 279.131 147.765 278.048 148.934 276.697L278.238 127.421C278.628 126.971 278.882 126.418 278.968 125.828C279.053 125.238 278.968 124.636 278.722 124.093C278.475 123.55 278.078 123.09 277.578 122.766C277.078 122.443 276.495 122.271 275.899 122.27L244.334 122.27C242.541 122.27 240.826 123.05 239.618 124.416L154.312 222.879L154.312 3.1221C154.312 1.40494 152.909 -1.04623e-05 151.195 -1.03124e-05L127.812 -8.26823e-06C126.098 -8.11832e-06 124.695 1.40494 124.695 3.1221L124.695 222.879L39.3888 124.416C38.2197 123.05 36.505 122.27 34.6734 122.27L3.10743 122.27C0.457446 122.27 -0.984455 125.392 0.769209 127.421Z" fill="black"/>
</svg>
