<svg width="136" height="136" viewBox="0 0 136 136" fill="none" xmlns="http://www.w3.org/2000/svg">
<rect width="136" height="136" fill="#FF0000"/>
<path d="M78.36 53.66C78.6533 52.1933 78.8 50.69 78.8 49.15C78.8 42.0367 75.3167 38.48 68.35 38.48C65.1967 38.48 62.52 39.14 60.32 40.46C58.2667 42.88 57.24 45.7767 57.24 49.15C57.24 51.35 58.1933 53.2567 60.1 54.87C62.0067 56.41 64.3533 57.62 67.14 58.5C70 59.38 73.08 60.48 76.38 61.8C79.68 63.12 82.7233 64.55 85.51 66.09C88.37 67.5567 90.7533 69.7933 92.66 72.8C94.5667 75.7333 95.52 79.2167 95.52 83.25C95.52 90.95 92.55 97.22 86.61 102.06C80.7433 106.9 73.6667 109.32 65.38 109.32C58.7067 109.32 53.0233 107.67 48.33 104.37C43.71 100.997 41.4 96.3033 41.4 90.29C41.4 87.21 42.3167 84.6433 44.15 82.59C46.0567 80.4633 48.2933 79.4 50.86 79.4C53.5 79.4 55.4433 79.73 56.69 80.39C56.1033 82.59 55.81 84.57 55.81 86.33C55.81 90.29 56.91 93.4433 59.11 95.79C61.3833 98.0633 64.5 99.2 68.46 99.2C72.42 99.2 75.61 98.1733 78.03 96.12C80.45 94.0667 81.66 91.3533 81.66 87.98C81.66 84.5333 80.3033 81.71 77.59 79.51C74.95 77.31 71.7233 75.55 67.91 74.23C64.0967 72.91 60.2833 71.5167 56.47 70.05C52.6567 68.5833 49.3933 66.42 46.68 63.56C44.04 60.6267 42.72 56.96 42.72 52.56C42.72 45.6667 45.69 39.9467 51.63 35.4C57.6433 30.8533 64.4267 28.58 71.98 28.58C77.5533 28.58 82.3567 29.7167 86.39 31.99C90.4967 34.19 92.55 37.5633 92.55 42.11C92.55 45.41 91.4867 48.2333 89.36 50.58C87.2333 52.8533 84.5567 53.99 81.33 53.99C80.45 53.99 79.46 53.88 78.36 53.66Z" fill="white"/>
</svg>
