<svg width="136" height="50" viewBox="0 0 136 50" fill="none" xmlns="http://www.w3.org/2000/svg">
<path d="M11.928 21.424C11.784 21.264 11.48 21.056 11.016 20.8C10.552 20.528 9.992 20.288 9.336 20.08C8.696 19.856 8.032 19.744 7.344 19.744C5.536 19.744 4.632 20.384 4.632 21.664C4.632 22.128 4.776 22.496 5.064 22.768C5.352 23.04 5.784 23.272 6.36 23.464C6.936 23.656 7.656 23.864 8.52 24.088C9.64 24.376 10.608 24.712 11.424 25.096C12.256 25.48 12.888 25.992 13.32 26.632C13.768 27.256 13.992 28.088 13.992 29.128C13.992 30.344 13.696 31.328 13.104 32.08C12.528 32.816 11.76 33.352 10.8 33.688C9.84 34.024 8.8 34.192 7.68 34.192C6.4 34.192 5.128 34 3.864 33.616C2.616 33.216 1.504 32.672 0.528 31.984L1.992 29.128C2.136 29.272 2.392 29.464 2.76 29.704C3.128 29.928 3.576 30.16 4.104 30.4C4.632 30.624 5.208 30.816 5.832 30.976C6.456 31.136 7.088 31.216 7.728 31.216C9.552 31.216 10.464 30.632 10.464 29.464C10.464 28.968 10.28 28.568 9.912 28.264C9.544 27.96 9.024 27.704 8.352 27.496C7.696 27.288 6.928 27.056 6.048 26.8C4.96 26.496 4.056 26.16 3.336 25.792C2.632 25.408 2.104 24.936 1.752 24.376C1.4 23.8 1.224 23.072 1.224 22.192C1.224 21.024 1.496 20.048 2.04 19.264C2.6 18.464 3.352 17.864 4.296 17.464C5.24 17.048 6.288 16.84 7.44 16.84C8.624 16.84 9.728 17.032 10.752 17.416C11.776 17.8 12.656 18.24 13.392 18.736L11.928 21.424ZM23.6484 34.24C22.6564 34.24 21.7924 34.016 21.0564 33.568C20.3204 33.12 19.7444 32.528 19.3284 31.792V39.112H16.1124V21.424H18.9204V23.584C19.3844 22.848 19.9844 22.272 20.7204 21.856C21.4724 21.424 22.3204 21.208 23.2644 21.208C24.4004 21.208 25.4084 21.504 26.2884 22.096C27.1684 22.672 27.8644 23.456 28.3764 24.448C28.8884 25.424 29.1444 26.504 29.1444 27.688C29.1444 28.92 28.9044 30.032 28.4244 31.024C27.9604 32 27.3124 32.784 26.4804 33.376C25.6644 33.952 24.7204 34.24 23.6484 34.24ZM22.5684 31.504C23.2244 31.504 23.7924 31.328 24.2724 30.976C24.7684 30.608 25.1524 30.136 25.4244 29.56C25.7124 28.968 25.8564 28.344 25.8564 27.688C25.8564 26.984 25.7044 26.352 25.4004 25.792C25.0964 25.216 24.6804 24.768 24.1524 24.448C23.6404 24.112 23.0484 23.944 22.3764 23.944C21.7684 23.944 21.1604 24.144 20.5524 24.544C19.9444 24.944 19.5364 25.448 19.3284 26.056V29.008C19.6164 29.712 20.0564 30.304 20.6484 30.784C21.2404 31.264 21.8804 31.504 22.5684 31.504ZM37.1554 34.24C35.7954 34.24 34.6194 33.944 33.6274 33.352C32.6514 32.76 31.8914 31.976 31.3474 31C30.8034 30.008 30.5314 28.936 30.5314 27.784C30.5314 26.6 30.7954 25.512 31.3234 24.52C31.8674 23.512 32.6354 22.712 33.6274 22.12C34.6194 21.512 35.8034 21.208 37.1794 21.208C38.5554 21.208 39.7314 21.512 40.7074 22.12C41.6834 22.712 42.4274 23.504 42.9394 24.496C43.4674 25.472 43.7314 26.528 43.7314 27.664C43.7314 28.08 43.7074 28.44 43.6594 28.744H33.9394C34.0194 29.72 34.3794 30.488 35.0194 31.048C35.6754 31.608 36.4274 31.888 37.2754 31.888C37.9154 31.888 38.5154 31.736 39.0754 31.432C39.6514 31.112 40.0434 30.696 40.2514 30.184L43.0114 30.952C42.5474 31.912 41.8034 32.704 40.7794 33.328C39.7554 33.936 38.5474 34.24 37.1554 34.24ZM33.8674 26.704H40.4434C40.3474 25.76 39.9874 25 39.3634 24.424C38.7554 23.832 38.0114 23.536 37.1314 23.536C36.2674 23.536 35.5234 23.832 34.8994 24.424C34.2914 25 33.9474 25.76 33.8674 26.704ZM51.5226 34.24C50.1626 34.24 48.9866 33.944 47.9946 33.352C47.0186 32.76 46.2586 31.976 45.7146 31C45.1706 30.008 44.8986 28.936 44.8986 27.784C44.8986 26.6 45.1626 25.512 45.6906 24.52C46.2346 23.512 47.0026 22.712 47.9946 22.12C48.9866 21.512 50.1706 21.208 51.5466 21.208C52.9226 21.208 54.0986 21.512 55.0746 22.12C56.0506 22.712 56.7946 23.504 57.3066 24.496C57.8346 25.472 58.0986 26.528 58.0986 27.664C58.0986 28.08 58.0746 28.44 58.0266 28.744H48.3066C48.3866 29.72 48.7466 30.488 49.3866 31.048C50.0426 31.608 50.7946 31.888 51.6426 31.888C52.2826 31.888 52.8826 31.736 53.4426 31.432C54.0186 31.112 54.4106 30.696 54.6186 30.184L57.3786 30.952C56.9146 31.912 56.1706 32.704 55.1466 33.328C54.1226 33.936 52.9146 34.24 51.5226 34.24ZM48.2346 26.704H54.8106C54.7146 25.76 54.3546 25 53.7306 24.424C53.1226 23.832 52.3786 23.536 51.4986 23.536C50.6346 23.536 49.8906 23.832 49.2666 24.424C48.6586 25 48.3146 25.76 48.2346 26.704ZM59.2898 27.712C59.2898 26.512 59.5298 25.416 60.0098 24.424C60.4898 23.432 61.1538 22.648 62.0018 22.072C62.8498 21.496 63.8178 21.208 64.9058 21.208C65.8338 21.208 66.6658 21.44 67.4018 21.904C68.1538 22.352 68.7378 22.928 69.1538 23.632V16.48H72.3698V30.4C72.3698 30.752 72.4258 31 72.5378 31.144C72.6498 31.272 72.8418 31.352 73.1138 31.384V34C72.5378 34.112 72.0818 34.168 71.7458 34.168C71.1698 34.168 70.6898 34.024 70.3058 33.736C69.9378 33.448 69.7298 33.072 69.6818 32.608L69.6338 31.816C69.1698 32.6 68.5378 33.2 67.7378 33.616C66.9538 34.032 66.1298 34.24 65.2658 34.24C64.0978 34.24 63.0658 33.952 62.1698 33.376C61.2738 32.784 60.5698 32 60.0578 31.024C59.5458 30.032 59.2898 28.928 59.2898 27.712ZM69.1538 29.392V26.392C68.8978 25.688 68.4578 25.104 67.8338 24.64C67.2098 24.176 66.5698 23.944 65.9138 23.944C65.2578 23.944 64.6818 24.128 64.1858 24.496C63.6898 24.848 63.3058 25.32 63.0338 25.912C62.7618 26.488 62.6258 27.112 62.6258 27.784C62.6258 28.472 62.7778 29.104 63.0818 29.68C63.3858 30.24 63.7938 30.688 64.3058 31.024C64.8338 31.344 65.4338 31.504 66.1058 31.504C66.7138 31.504 67.3138 31.304 67.9058 30.904C68.5138 30.504 68.9298 30 69.1538 29.392Z" fill="black"/>
<g filter="url(#filter0_d)">
<path d="M72.5645 39.8114L68.822 23.1875L79.9905 20.6731L80.6283 23.5062L72.6909 25.2931L73.6556 29.5779L80.2583 28.0914L80.8487 30.7138L74.2459 32.2003L75.7957 39.084L72.5645 39.8114ZM90.7155 35.9711C89.3887 36.2698 88.1764 36.2393 87.0786 35.8796C85.9964 35.5165 85.0828 34.9185 84.3377 34.0858C83.5891 33.2375 83.0883 32.2515 82.8353 31.1276C82.5753 29.9725 82.5939 28.8531 82.8911 27.7693C83.2004 26.6665 83.774 25.7173 84.6117 24.9219C85.446 24.1109 86.5343 23.5542 87.8767 23.252C89.2191 22.9498 90.4332 22.9881 91.5189 23.3669C92.6011 23.7301 93.5008 24.3393 94.2182 25.1947C94.9477 26.0309 95.4372 27.0031 95.6867 28.1114C95.778 28.5172 95.8337 28.8737 95.8536 29.1808L86.371 31.3156C86.6634 32.2502 87.1832 32.9204 87.9306 33.3262C88.6936 33.7284 89.4887 33.8364 90.316 33.6502C90.9404 33.5096 91.4924 33.2295 91.9719 32.81C92.4636 32.3713 92.7546 31.8793 92.8451 31.3342L95.7064 31.4772C95.4646 32.5157 94.9127 33.4518 94.0507 34.2854C93.1853 35.1035 92.0735 35.6654 90.7155 35.9711ZM85.8527 29.3413L92.2681 27.897C91.9671 26.9971 91.449 26.3347 90.7137 25.9098C89.9905 25.4658 89.1997 25.3405 88.3412 25.5337C87.4983 25.7235 86.8374 26.1757 86.3587 26.8903C85.8921 27.5857 85.7234 28.4027 85.8527 29.3413ZM104.732 32.8156C103.405 33.1143 102.193 33.0838 101.095 32.7242C100.013 32.361 99.0992 31.763 98.3541 30.9303C97.6055 30.082 97.1047 29.096 96.8517 27.9721C96.5917 26.817 96.6103 25.6976 96.9075 24.6138C97.2168 23.511 97.7904 22.5618 98.6281 21.7664C99.4624 20.9554 100.551 20.3988 101.893 20.0965C103.235 19.7943 104.45 19.8326 105.535 20.2114C106.617 20.5746 107.517 21.1839 108.235 22.0392C108.964 22.8754 109.454 23.8476 109.703 24.9559C109.794 25.3617 109.85 25.7182 109.87 26.0253L100.387 28.1601C100.68 29.0947 101.2 29.7649 101.947 30.1707C102.71 30.5729 103.505 30.6809 104.332 30.4947C104.957 30.3541 105.509 30.0741 105.988 29.6545C106.48 29.2158 106.771 28.7238 106.861 28.1787L109.723 28.3217C109.481 29.3602 108.929 30.2963 108.067 31.1299C107.202 31.948 106.09 32.5099 104.732 32.8156ZM99.869 26.1858L106.284 24.7415C105.983 23.8416 105.465 23.1792 104.73 22.7543C104.007 22.3103 103.216 22.185 102.358 22.3782C101.515 22.568 100.854 23.0202 100.375 23.7348C99.9084 24.4303 99.7398 25.2472 99.869 26.1858ZM110.876 24.7411C110.612 23.5704 110.606 22.4484 110.856 21.3752C111.106 20.302 111.582 19.3913 112.283 18.6432C112.984 17.895 113.865 17.4014 114.926 17.1624C115.831 16.9586 116.694 17.0022 117.514 17.2932C118.346 17.5651 119.042 17.9988 119.603 18.5943L118.032 11.6169L121.169 10.9106L124.227 24.4907C124.304 24.8341 124.413 25.0637 124.554 25.1796C124.691 25.2799 124.896 25.3158 125.169 25.2872L125.743 27.8394C125.206 28.0751 124.773 28.2299 124.445 28.3037C123.884 28.4302 123.384 28.3952 122.946 28.1985C122.524 27.9984 122.238 27.6773 122.089 27.2351L121.868 26.473C121.588 27.3398 121.103 28.0639 120.414 28.6455C119.741 29.2235 118.982 29.6074 118.14 29.7972C117 30.0537 115.93 29.9994 114.929 29.6342C113.925 29.2535 113.066 28.6433 112.352 27.8035C111.635 26.9482 111.143 25.9274 110.876 24.7411ZM120.868 24.2136L120.209 21.2869C119.805 20.6563 119.247 20.1832 118.536 19.8676C117.826 19.5519 117.15 19.4662 116.51 19.6102C115.87 19.7543 115.349 20.0603 114.946 20.5283C114.539 20.9806 114.268 21.5255 114.133 22.1627C113.994 22.7844 113.998 23.423 114.146 24.0786C114.297 24.7498 114.584 25.333 115.007 25.8282C115.427 26.3077 115.923 26.6552 116.497 26.8705C117.082 27.0668 117.703 27.0911 118.358 26.9435C118.951 26.81 119.493 26.4831 119.982 25.9628C120.488 25.439 120.783 24.856 120.868 24.2136Z" fill="#FF0000"/>
</g>
<defs>
<filter id="filter0_d" x="58.822" y="0.910553" width="76.9212" height="48.9008" filterUnits="userSpaceOnUse" color-interpolation-filters="sRGB">
<feFlood flood-opacity="0" result="BackgroundImageFix"/>
<feColorMatrix in="SourceAlpha" type="matrix" values="0 0 0 0 0 0 0 0 0 0 0 0 0 0 0 0 0 0 127 0"/>
<feOffset/>
<feGaussianBlur stdDeviation="5"/>
<feColorMatrix type="matrix" values="0 0 0 0 1 0 0 0 0 0 0 0 0 0 0 0 0 0 0.36 0"/>
<feBlend mode="normal" in2="BackgroundImageFix" result="effect1_dropShadow"/>
<feBlend mode="normal" in="SourceGraphic" in2="effect1_dropShadow" result="shape"/>
</filter>
</defs>
</svg>
