<svg width="279" height="281" viewBox="0 0 279 281" fill="none" xmlns="http://www.w3.org/2000/svg">
<path d="M278.231 153.579L148.888 4.30317C147.719 2.95242 146.274 1.86912 144.65 1.12668C143.026 0.384241 141.262 0 139.477 0C137.692 0 135.928 0.384241 134.304 1.12668C132.68 1.86912 131.235 2.95242 130.066 4.30317L0.762274 153.579C0.371545 154.029 0.118196 154.582 0.0324076 155.172C-0.0533803 155.762 0.0320071 156.364 0.278398 156.907C0.524789 157.45 0.9218 157.91 1.42214 158.234C1.92248 158.557 2.50506 158.729 3.10049 158.73H34.6664C36.4591 158.73 38.1738 157.95 39.3818 156.584L124.688 58.1205V277.878C124.688 279.595 126.091 281 127.805 281H151.188C152.902 281 154.305 279.595 154.305 277.878V58.1205L239.611 156.584C240.78 157.95 242.495 158.73 244.327 158.73H275.893C278.543 158.73 279.984 155.608 278.231 153.579Z" fill="black"/>
</svg>
